# xmcd
#
# Track frame offsets: 
# 150
# 18707
# 36606
# 50903
# 63540
# 80629
# 94568
# 113110
# 130439
# 148249
# 165929
# 181786
# 208588
# 227023
# 251703
# 266877
#
# Disc length: 3831 seconds
# Submitted via: tkcNetwork 1.0
# Revision: 0
# Processed by: cddbd v1.5.1PL0 Copyright (c) Steve Scherf et al.
#
DISCID=f10ef510
DTITLE=Various Artist - Dancers' Choice Vol. 1
DYEAR=1900
DGENRE=Country
TTITLE0=The Commitments - Mustang Sally
TTITLE1=Microwave Dave - Roadrunner
TTITLE2=Lou Rawls - Fine Brown Frame
TTITLE3=5 Heartbeats - Nothin' But Love
TTITLE4=Delbert McClinton - Maybe Someday Baby
TTITLE5=King Floyd - Groove Me
TTITLE6=Marcia Ball - Gonna Make It
TTITLE7=Clint Black and The Pointer Sisters - Chain Of Fools
TTITLE8=George Benson - Baby Workout
TTITLE9=Blackout Allstars - I Like It
TTITLE10=Delbert McClinton - Lovey Dovey
TTITLE11=Lee Atwater - Te-ni-nee-ni-nu
TTITLE12=Red Hot and Blue - Knock On Wood
TTITLE13=Joe Louis Walker - Cold and Evil Night
TTITLE14=Aretha Franklin - Think
TTITLE15=Red Hot and Blue - Just A Little Bit
EXTD=
EXTT0=
EXTT1=
EXTT2=
EXTT3=
EXTT4=
EXTT5=
EXTT6=
EXTT7=
EXTT8=
EXTT9=
EXTT10=
EXTT11=
EXTT12=
EXTT13=
EXTT14=
EXTT15=
PLAYORDER=
